<?xml version="1.0" encoding="utf-8"?>
<!-- Generator: Adobe Illustrator 21.0.2, SVG Export Plug-In . SVG Version: 6.00 Build 0)  -->
<svg version="1.1" id="Layer_1" xmlns="http://www.w3.org/2000/svg" xmlns:xlink="http://www.w3.org/1999/xlink" x="0px" y="0px"
	 viewBox="0 0 440 110" enable-background="new 0 0 440 110" xml:space="preserve">
<g>
	<path fill="#FFFFFF" d="M412.8,4.7l-37.7,62.2L336.6,4.7l-38.3,62.2L260.4,4.7h-27.1l6.7,10.6c-11.3-6.4-24.3-9.6-39.1-9.6
		c-18.4,0-34.1,4.9-47.1,14.8c-7.4,5.6-12.7,12-15.9,19l0-34.8h-6.1l-18.9,29.6v72.4l25,0l0-34.1c3.2,7,8.4,13.4,15.9,19.1
		c13.1,9.8,28.8,14.7,47.1,14.7h66.5V86.3H201c-8.6,0-16.3-1.9-23.3-5.7c-6.8-3.6-11.6-8.4-14.3-14.4h24.3V66h79.8v-7.7l30.8,48.4
		l38.3-61l38.4,61l65-102H412.8z M163.4,46c2.7-6,7.5-10.8,14.3-14.5c6.9-3.7,14.7-5.6,23.3-5.6c8.6,0,16.3,1.9,23.3,5.6
		c6.8,3.7,11.6,8.6,14.3,14.5H163.4z"/>
	<polygon fill="#FFFFFF" points="128.3,4.7 102.1,4.7 63.8,66.3 25.9,4.7 0,4.7 64,106.7 115.4,25.4 	"/>
</g>
<g>
</g>
<g>
</g>
<g>
</g>
<g>
</g>
<g>
</g>
<g>
</g>
</svg>
